# Made in Blockbench 4.7.2
mtllib materials.mtl

o cube
v 0.625 0.625 0.625
v 0.625 0.625 0
v 0.625 0 0.625
v 0.625 0 0
v 0 0.625 0
v 0 0.625 0.625
v 0 0 0
v 0 0 0.625
vt 0.05863192182410423 0.6775244299674267
vt 0.10484527687296419 0.6775244299674267
vt 0.10484527687296419 0.5850977198697067
vt 0.05863192182410423 0.5850977198697067
vt 0.058631249999999996 0.6775244299674267
vt 0.10484374999999999 0.6775244299674267
vt 0.10484374999999999 0.5850977198697067
vt 0.058631249999999996 0.5850977198697067
vt 0.058631250000000024 0.6775249999999999
vt 0.10484375000000001 0.6775249999999999
vt 0.10484375000000001 0.5851
vt 0.058631250000000024 0.5851
vt 0.058631250000000024 0.6775249999999999
vt 0.10484375000000001 0.6775249999999999
vt 0.10484375000000001 0.5851
vt 0.058631250000000024 0.5851
vt 0.058631249999999996 0.6775244299674267
vt 0.10484460504885995 0.6775244299674267
vt 0.10484460504885995 0.5850977198697067
vt 0.058631249999999996 0.5850977198697067
vt 0.058631249999999996 0.6775244299674267
vt 0.10484460504885995 0.6775244299674267
vt 0.10484460504885995 0.5850977198697067
vt 0.058631249999999996 0.5850977198697067
vn 0 0 -1
vn 1 0 0
vn 0 0 1
vn -1 0 0
vn 0 1 0
vn 0 -1 0
usemtl m_4238842d-944c-a39d-e719-2782eb979884
f 4/4/1 7/3/1 5/2/1 2/1/1
f 3/8/2 4/7/2 2/6/2 1/5/2
f 8/12/3 3/11/3 1/10/3 6/9/3
f 7/16/4 8/15/4 6/14/4 5/13/4
f 6/20/5 1/19/5 2/18/5 5/17/5
f 7/24/6 4/23/6 3/22/6 8/21/6